<?xml version="1.0" encoding="UTF-8" standalone="no"?>
<svg
   xmlns:dc="http://purl.org/dc/elements/1.1/"
   xmlns:cc="http://creativecommons.org/ns#"
   xmlns:rdf="http://www.w3.org/1999/02/22-rdf-syntax-ns#"
   xmlns:svg="http://www.w3.org/2000/svg"
   xmlns="http://www.w3.org/2000/svg"
   xmlns:sodipodi="http://sodipodi.sourceforge.net/DTD/sodipodi-0.dtd"
   xmlns:inkscape="http://www.inkscape.org/namespaces/inkscape"
   width="295.24667mm"
   height="93.933037mm"
   viewBox="0 0 295.24667 93.933037"
   version="1.1"
   id="svg8"
   inkscape:version="1.0.2 (e86c870879, 2021-01-15, custom)"
   sodipodi:docname="philscontracting-logo-2021.svg">
  <defs
     id="defs2" />
  <sodipodi:namedview
     id="base"
     pagecolor="#ffffff"
     bordercolor="#666666"
     borderopacity="1.0"
     inkscape:pageopacity="0.0"
     inkscape:pageshadow="2"
     inkscape:zoom="0.70000001"
     inkscape:cx="235.60329"
     inkscape:cy="311.95035"
     inkscape:document-units="mm"
     inkscape:current-layer="layer5"
     inkscape:document-rotation="0"
     showgrid="false"
     inkscape:window-width="2560"
     inkscape:window-height="1377"
     inkscape:window-x="-8"
     inkscape:window-y="-8"
     inkscape:window-maximized="1"
     fit-margin-top="0"
     fit-margin-left="0"
     fit-margin-right="0"
     fit-margin-bottom="0" />
  <metadata
     id="metadata5">
    <rdf:RDF>
      <cc:Work
         rdf:about="">
        <dc:format>image/svg+xml</dc:format>
        <dc:type
           rdf:resource="http://purl.org/dc/dcmitype/StillImage" />
        <dc:title></dc:title>
      </cc:Work>
    </rdf:RDF>
  </metadata>
  <g
     inkscape:groupmode="layer"
     id="layer2"
     inkscape:label="Roof"
     style="display:inline"
     transform="translate(-0.66145834,-1.4646578)">
    <g
       id="g1081"
       style="display:inline"
       transform="matrix(1.4199046,0,0,1.4199046,-0.27774937,-0.61501645)">
      <path
         style="opacity:1;mix-blend-mode:normal;fill:#000000;fill-opacity:1;stroke:none;stroke-width:0.267848px;stroke-linecap:butt;stroke-linejoin:miter;stroke-opacity:1"
         d="M 0.66145832,39.6875 8.1973585,35.222656 v 4.44071 z"
         id="path24"
         sodipodi:nodetypes="cccc" />
      <path
         style="fill:#000000;fill-opacity:1;stroke:none;stroke-width:0.264583px;stroke-linecap:butt;stroke-linejoin:miter;stroke-opacity:1"
         d="m 4.157738,33.616259 3.8742561,-0.02362 8.1264879,-13.063803 -1.819011,-2.62221 z"
         id="path1065"
         sodipodi:nodetypes="ccccc" />
      <path
         style="fill:#000000;fill-opacity:1;stroke:none;stroke-width:0.264583px;stroke-linecap:butt;stroke-linejoin:miter;stroke-opacity:1"
         d="m 16.203215,15.702085 9.521477,15.80231 14.365736,0.835218 -9.120571,7.249686 H 49.444862 V 28.363979 L 59.500878,13.76438 56.761366,9.621703 45.268776,27.796029 h -2.806329 l 5.445614,-7.984675 z"
         id="path1067" />
      <path
         style="fill:#000000;fill-opacity:1;stroke:none;stroke-width:0.264583px;stroke-linecap:butt;stroke-linejoin:miter;stroke-opacity:1"
         d="M 72.098957,27.119791 92.178943,28.584448 78.241072,39.6875 H 107.25074 L 156.95461,1.4646577 107.53422,10.819568 57.499628,5.905878 Z"
         id="path1069" />
      <path
         style="fill:#000000;fill-opacity:1;stroke:none;stroke-width:0.264583px;stroke-linecap:butt;stroke-linejoin:miter;stroke-opacity:1"
         d="m 157.99405,3.921503 50.60156,35.624257 h -6.52009 L 154.78125,6.5673363 Z"
         id="path1071" />
      <path
         style="fill:#000000;fill-opacity:1;stroke:none;stroke-width:0.264583px;stroke-linecap:butt;stroke-linejoin:miter;stroke-opacity:1"
         d="m 178.92448,8.5517113 7.89025,-1.7953871 -0.0945,13.7488838 -7.84301,-5.008184 z"
         id="path1073" />
    </g>
  </g>
  <g
     inkscape:groupmode="layer"
     id="layer3"
     inkscape:label="Phil's"
     style="display:inline"
     transform="translate(-0.66145834,-1.4646578)">
    <path
       id="path1092"
       style="opacity:1;fill:#000000;fill-opacity:1;stroke:none;stroke-width:0.375683px;stroke-linecap:butt;stroke-linejoin:miter;stroke-opacity:1"
       d="m 190.39389,38.035059 c -2.5107,0.01232 -4.4276,-0.03584 -6.9949,0 v 18.205373 h 5.02843 v -5.576177 c 4.59528,0.09525 9.39208,-1.120787 9.39208,-6.545835 0,-4.14189 -1.95681,-6.02732 -7.42561,-6.083361 z m 1.87548,6.225708 c -0.0371,2.612658 -3.7473,2.229153 -3.7473,2.229153 v -4.364382 c 2.75916,-0.03355 3.76352,0.991405 3.7473,2.135229 z"
       sodipodi:nodetypes="cccccscsccs" />
    <path
       style="opacity:1;fill:#000000;fill-opacity:1;stroke:none;stroke-width:0.375683px;stroke-linecap:butt;stroke-linejoin:miter;stroke-opacity:1"
       d="m 200.37727,38.035058 v 18.205376 h 5.08178 v -6.507208 h 6.28933 v 6.507208 h 5.19919 V 38.035058 h -5.19919 v 6.935043 h -6.28933 v -6.935043 z"
       id="path1097"
       sodipodi:nodetypes="ccccccccccccc" />
    <path
       id="rect1107"
       style="opacity:1;fill:#000000;fill-opacity:1;stroke:none;stroke-width:0.375683"
       d="m 220.87213,38.035058 h 5.26627 v 18.205376 h -5.26627 z"
       sodipodi:nodetypes="ccccc" />
    <path
       id="rect1109"
       style="opacity:1;fill:#000000;fill-opacity:1;stroke:none;stroke-width:0.375683"
       d="m 229.86189,38.035059 v 13.677002 4.528371 h 5.53472 5.66827 v -4.528371 h -5.66827 V 38.035059 Z"
       sodipodi:nodetypes="ccccccccc" />
    <path
       style="fill:#000000;fill-opacity:1;stroke:none;stroke-width:0.375683px;stroke-linecap:butt;stroke-linejoin:miter;stroke-opacity:1"
       d="m 244.28522,38.035058 h 4.36061 l -0.63732,5.29143 h -3.05243 z"
       id="path1114"
       sodipodi:nodetypes="ccccc" />
    <path
       style="opacity:1;fill:#000000;fill-opacity:1;stroke:none;stroke-width:0.375683px;stroke-linecap:butt;stroke-linejoin:miter;stroke-opacity:1"
       d="m 261.7876,43.627076 c 0,0 0,1.961737 0,3.200815 -1.0573,-0.705062 -4.37518,-1.340688 -4.43706,-0.108764 -0.0838,1.668191 5.57506,1.191193 5.36328,5.463412 -0.20987,4.233731 -4.73149,5.109262 -10.42776,4.026402 v -3.856302 c 0.89989,0.487764 5.32221,1.868322 5.49433,0.256834 0.17454,-1.634127 -5.59716,-0.995627 -5.61436,-5.13949 -0.0178,-4.280533 5.85086,-5.757363 9.62157,-3.842902 z"
       id="path1117"
       sodipodi:nodetypes="ccssccssc" />
  </g>
  <g
     inkscape:groupmode="layer"
     id="layer5"
     inkscape:label="Contracting"
     style="display:inline"
     transform="translate(-0.66145834,-1.4646578)">
    <path
       id="rect876"
       style="opacity:1;fill:#000000;fill-opacity:1;stroke:none;stroke-width:0.372005"
       d="M 12.245998,66.745985 V 95.397692 H 285.67357 V 66.745985 Z m 18.879543,6.523827 c 10.934494,0 10.483904,2.394063 10.483904,6.414495 h -5.313126 c -0.231784,-1.716432 0.730842,-2.336279 -5.502436,-2.336279 -5.643398,0 -6.380743,-0.02953 -6.380743,4.506728 0,4.862684 0.483354,4.340169 6.1907,4.340169 5.501339,0 5.668577,0.0278 5.929482,-2.265106 h 5.289646 c 0,6.521355 -1.231222,7.032318 -11.313783,7.032318 -10.935008,0 -11.717349,-1.043558 -11.717349,-9.131594 0,-8.016881 1.492214,-8.560731 12.333705,-8.560731 z m 25.485545,0 c 11.213464,0 12.14293,0.668111 12.14293,8.434524 0,8.168932 -1.197813,9.257801 -12.14293,9.257801 -11.347624,0 -11.941143,-1.021501 -11.941143,-9.257801 0,-8.135387 0.627064,-8.434524 11.941143,-8.434524 z m 15.310555,0 h 8.159367 l 10.293862,13.09094 v -13.09094 h 5.407782 v 17.692325 h -8.20706 L 77.187076,78.391428 v 12.570709 h -5.265435 z m 26.37486,0 h 20.113719 v 4.434086 h -7.44762 v 13.258239 h -5.40779 V 77.703898 h -7.258309 z m 22.532909,0 h 16.3657 c 3.7405,0 5.04017,1.997601 5.04017,5.785666 0,2.822653 -0.11758,4.115262 -2.48303,4.957254 1.16372,0.675997 2.47167,1.315921 2.48303,4.268992 v 2.680413 h -5.39604 v -2.229886 c 0,-1.830719 -0.71787,-2.039843 -2.03985,-2.039843 h -8.63337 v 4.269729 h -5.33661 z m 32.85613,0 h 7.11083 l 9.56011,17.692325 h -5.87005 l -1.87841,-2.984919 h -10.93517 l -1.64362,2.984919 h -5.83703 z m 30.29459,0 c 10.9345,0 10.48317,2.394059 10.48317,6.414495 h -5.3124 c -0.23178,-1.716432 0.73011,-2.336279 -5.50317,-2.336279 -5.64339,0 -6.38,-0.02953 -6.38,4.506728 0,4.862684 0.48335,4.340169 6.1907,4.340169 5.50133,0 5.66858,0.0278 5.92948,-2.265106 h 5.28891 c 0,6.521359 -1.23123,7.032318 -11.31378,7.032318 -10.93501,0 -11.71662,-1.043558 -11.71662,-9.131594 0,-8.016881 1.49222,-8.560731 12.33371,-8.560731 z m 12.93831,0 h 20.11372 v 4.434086 h -7.44762 v 13.258239 h -5.40851 V 77.703898 h -7.25759 z m 22.89686,0 h 5.26617 v 17.692325 h -5.26617 z m 9.147,0 h 8.15937 l 10.29386,13.09094 v -13.09094 h 5.40778 v 17.692325 h -8.20706 L 234.22774,78.391428 v 12.570709 h -5.26544 z m 38.37691,0 c 10.49664,0 11.38496,0.678499 11.38496,5.833359 h -5.1473 c 0,-1.79471 -0.4106,-1.897493 -1.89749,-1.897493 h -6.97289 c -2.89153,0 -3.15515,0.387093 -3.15515,5.277175 0,3.423735 0.21296,4.115635 3.41564,4.115635 h 6.45191 c 1.84344,0 2.06333,-0.619746 2.06333,-2.419925 h -6.69479 v -3.473604 h 12.05487 v 5.228746 c 0,4.569847 -2.63035,5.028432 -10.95791,5.028432 -10.18321,0 -12.12018,-0.790313 -12.12018,-8.479284 0.0237,-9.396611 2.17809,-9.213041 11.575,-9.213041 z M 56.524506,77.284925 c -6.103636,0 -6.442378,0.328159 -6.442378,4.422346 0,4.547493 0.0523,4.659353 6.442378,4.659353 6.541999,0 6.51717,-0.11124 6.550238,-4.659353 0.03111,-4.278084 -0.500891,-4.422346 -6.550238,-4.422346 z m 100.716084,0.361009 -3.23367,6.454115 h 6.64564 z m -31.06063,0.225996 v 4.268259 h 9.33338 c 1.23916,0 1.66856,-0.899862 1.66856,-2.079466 0,-1.308643 -0.59238,-2.188793 -1.66856,-2.188793 z" />
  </g>
</svg>
